<?xml version="1.0" encoding="UTF-8" standalone="no"?>
<!-- Created with Inkscape (http://www.inkscape.org/) -->

<svg
   xmlns:dc="http://purl.org/dc/elements/1.1/"
   xmlns:cc="http://creativecommons.org/ns#"
   xmlns:rdf="http://www.w3.org/1999/02/22-rdf-syntax-ns#"
   xmlns:svg="http://www.w3.org/2000/svg"
   xmlns="http://www.w3.org/2000/svg"
   xmlns:xlink="http://www.w3.org/1999/xlink"
   xmlns:sodipodi="http://sodipodi.sourceforge.net/DTD/sodipodi-0.dtd"
   xmlns:inkscape="http://www.inkscape.org/namespaces/inkscape"
   width="93.486115mm"
   height="93.486115mm"
   viewBox="0 0 93.486115 93.486115"
   version="1.1"
   id="svg8"
   inkscape:version="0.92.4 (5da689c313, 2019-01-14)"
   sodipodi:docname="hen.svg">
  <defs
     id="defs2" />
  <g
     inkscape:label="Layer 1"
     inkscape:groupmode="layer"
     id="layer1"
     transform="translate(-62.870037,-16.667658)">
    <path
       style="fill:white"
       d="m 121.07837,95.142471 c -1.26398,-0.398272 -4.61062,-0.501301 -16.4218,-0.505566 -10.920054,-0.004 -14.944132,-0.115178 -15.250515,-0.421559 -0.319754,-0.319757 -0.603177,-0.316141 -1.223032,0.01559 -0.506568,0.271106 -1.920545,0.393175 -3.79949,0.328009 L 81.390871,94.455161 81.30073,63.625596 c -0.06574,-22.485033 0.01756,-30.959338 0.307779,-31.309028 0.525771,-0.633515 6.326879,-0.673004 6.952556,-0.04733 0.341,0.341 0.578076,0.341 1.124103,0 0.408634,-0.255196 1.885613,-0.424356 3.607167,-0.413132 2.697829,0.01759 3.914798,0.327518 16.320755,4.156446 l 13.40556,4.137439 0.0946,8.367166 0.0946,8.367166 h 2.38894 c 6.2143,0 12.52531,3.493845 15.94933,8.829725 4.00255,6.237429 4.00262,14.926311 1.8e-4,21.095562 -3.69208,5.690859 -9.50258,8.90959 -15.98818,8.85667 -1.59071,-0.01298 -3.60658,-0.248695 -4.47971,-0.523812 z M 86.858927,75.228772 V 57.94266 h -1.940278 -1.940278 v 17.286112 17.286111 h 1.940278 1.940278 z m 2.822222,0.705555 c 0,-14.503086 -0.0663,-16.580556 -0.529166,-16.580556 -0.462865,0 -0.529167,2.07747 -0.529167,16.580556 0,14.503087 0.0663,16.580556 0.529167,16.580556 0.462864,0 0.529166,-2.077469 0.529166,-16.580556 z m 5.291667,-0.705555 V 57.94266 H 93.032538 91.09226 v 17.286112 17.286111 h 1.940278 1.940278 z m 17.932434,15.260609 c -4.06493,-3.877281 -6.00007,-8.368333 -6.04358,-14.025887 -0.041,-5.333104 1.71885,-9.956289 5.12886,-13.473565 1.41273,-1.457166 1.42144,-1.481899 0.58662,-1.666279 -2.26296,-0.499801 -14.611598,-2.675435 -15.185441,-2.675435 -0.629056,0 -0.655004,0.670807 -0.655004,16.933334 v 16.933334 h 9.146035 9.14603 z m 19.27459,-0.227721 c 10.20525,-5.04371 11.63871,-19.188798 2.66353,-26.283272 -7.30231,-5.77214 -18.22848,-3.306593 -22.4979,5.076772 -3.19502,6.273705 -2.15825,13.164754 2.73656,18.18886 3.28445,3.371215 6.49965,4.618919 11.39761,4.423001 2.72488,-0.108998 3.42787,-0.282314 5.7002,-1.405361 z m -12.98707,-5.094694 c -0.48927,-0.540635 -0.58384,-1.512115 -0.58384,-5.997222 V 73.81766 h 0.83364 c 0.77136,0 0.84731,-0.17013 1.01642,-2.276877 0.29597,-3.687223 1.9855,-5.778751 4.90061,-6.066649 1.94227,-0.191819 4.0054,0.932561 4.94247,2.693578 0.82127,1.543414 0.86128,3.378285 0.0802,3.678012 -0.71684,0.275079 -1.54279,-0.377627 -1.54279,-1.219193 0,-0.349412 -0.41098,-1.123724 -0.9133,-1.720691 -1.18029,-1.402697 -2.94308,-1.494427 -4.21801,-0.219491 -0.72751,0.727509 -0.86591,1.205226 -0.86591,2.988924 v 2.123016 l 5.02709,0.09788 5.02708,0.09788 0.0976,5.194096 c 0.13161,7.005994 0.55118,6.62396 -7.27484,6.62396 -5.30902,0 -6.00479,-0.06878 -6.52639,-0.645139 z m 7.17727,-4.244015 c 0,-0.725855 0.17452,-1.494254 0.38782,-1.707558 0.63283,-0.63283 0.0262,-1.869955 -0.91699,-1.869955 -0.94316,0 -1.54982,1.237125 -0.91699,1.869955 0.21331,0.213304 0.38783,0.964615 0.38783,1.669581 0,0.70497 0.10152,1.383277 0.22559,1.507356 0.46252,0.46252 0.83274,-0.190736 0.83274,-1.469379 z m -8.41808,-22.233969 c 1.23446,-0.55966 2.52228,-1.110304 2.86183,-1.223652 0.56298,-0.187928 0.61736,-0.888862 0.61736,-7.956917 v -7.750835 l -3.08681,-0.940589 c -1.69774,-0.517324 -7.13493,-2.193345 -12.08263,-3.724491 -4.94771,-1.531147 -9.114901,-2.784363 -9.260422,-2.784927 -0.14552,-5.63e-4 -0.264583,4.97253 -0.264583,11.051318 V 56.41123 l 8.731255,1.613895 c 4.80218,0.887642 9.07061,1.629089 9.48539,1.647659 0.41478,0.01856 1.76415,-0.424141 2.99861,-0.983802 z M 89.681149,45.771826 c 0,-9.956173 -0.06965,-11.465278 -0.529166,-11.465278 -0.459516,0 -0.529167,1.509105 -0.529167,11.465278 0,9.956172 0.06965,11.465278 0.529167,11.465278 0.459515,0 0.529166,-1.509106 0.529166,-11.465278 z M 86.858927,45.06627 V 33.600992 H 84.918649 82.978371 V 45.06627 56.531549 h 1.940278 1.940278 z m 8.113889,0 V 33.600992 H 93.032538 91.09226 V 45.06627 56.531549 h 1.940278 1.940278 z"
       id="path21"
       inkscape:connector-curvature="0" />
  </g>
</svg>
