<?xml version="1.0" encoding="UTF-8" standalone="no"?>
<!-- Created with Inkscape (http://www.inkscape.org/) -->

<svg
   xmlns:dc="http://purl.org/dc/elements/1.1/"
   xmlns:cc="http://creativecommons.org/ns#"
   xmlns:rdf="http://www.w3.org/1999/02/22-rdf-syntax-ns#"
   xmlns:svg="http://www.w3.org/2000/svg"
   xmlns="http://www.w3.org/2000/svg"
   xmlns:xlink="http://www.w3.org/1999/xlink"
   xmlns:sodipodi="http://sodipodi.sourceforge.net/DTD/sodipodi-0.dtd"
   xmlns:inkscape="http://www.inkscape.org/namespaces/inkscape"
   width="70.114586mm"
   height="70.114586mm"
   viewBox="0 0 70.114586 70.114586"
   version="1.1"
   id="svg8"
   inkscape:version="0.92.4 (5da689c313, 2019-01-14)"
   sodipodi:docname="linux.svg">
  <defs
     id="defs2" />
  <g
     inkscape:label="Layer 1"
     inkscape:groupmode="layer"
     id="layer1"
     transform="translate(-38.270088,-20.793898)">

    <path
       style="fill:white"
       d="M 68.432589,77.160924 C 57.677365,74.859861 50.300857,65.78533 50.357563,54.925149 50.44223,38.710098 66.748469,27.965002 81.794048,34.209885 c 3.74717,1.555317 7.870315,5.021253 10.089653,8.481412 2.30786,3.598174 3.27011,6.712554 3.461642,11.203821 0.171902,4.030933 -0.147844,6.125631 -1.429441,9.364407 -4.055295,10.248305 -14.90195,16.165264 -25.483313,13.901399 z m 13.301068,-5.090658 c 0.582634,-0.174561 1.680689,-0.885269 2.440125,-1.579348 0.759434,-0.694081 1.988688,-1.567296 2.731678,-1.940478 0.742989,-0.373182 1.53398,-0.861605 1.757759,-1.085384 0.593148,-0.593146 0.498189,-1.729992 -0.226552,-2.712324 -0.348382,-0.472207 -0.76512,-1.381566 -0.926082,-2.020802 -0.160959,-0.639234 -0.521649,-1.322639 -0.801528,-1.518674 -0.453136,-0.317389 -0.479227,-0.495443 -0.238186,-1.625598 0.529778,-2.483972 -0.830279,-6.039186 -3.656169,-9.557301 -2.235552,-2.783166 -2.734744,-4.023 -2.737861,-6.799998 -0.0067,-5.95089 -1.671883,-8.413544 -5.689084,-8.413544 -2.716263,0 -4.210849,0.793269 -5.234231,2.778125 -0.473718,0.91878 -0.550495,1.58166 -0.582263,5.027084 -0.0418,4.533544 -0.134022,4.817308 -2.659883,8.184071 -2.19115,2.920621 -3.352722,5.461169 -3.511493,7.680206 -0.152599,2.132772 -0.912292,3.387548 -2.335826,3.858051 -1.396549,0.461582 -1.600216,0.921538 -1.779928,4.019749 -0.162017,2.793148 -0.154206,2.846893 0.473549,3.258211 0.351055,0.230021 1.431158,0.530506 2.400228,0.667742 0.969069,0.137237 2.377232,0.516512 3.129249,0.842831 0.941207,0.408413 1.889775,0.593307 3.043859,0.593307 1.469088,0 1.748387,-0.08351 2.257038,-0.674855 0.677167,-0.787249 3.566676,-1.428887 5.326825,-1.182859 2.489232,0.347935 2.737596,0.433536 3.169232,1.092293 0.391293,0.597188 1.706346,1.387742 2.356321,1.416523 0.128638,0.0057 0.710587,-0.132466 1.293223,-0.307028 z M 78.91971,70.896363 c -0.818036,-0.818039 -0.885913,-1.733579 -0.271947,-3.668088 0.230923,-0.727604 0.515565,-2.288022 0.632534,-3.467592 0.197094,-1.987551 0.63913,-3.279283 1.122188,-3.279283 0.110517,0 0.200938,0.215675 0.200938,0.479276 0,0.263602 0.253722,0.751615 0.563827,1.084475 0.660723,0.709199 1.754812,0.61796 2.931189,-0.244446 0.39429,-0.289055 0.905717,-0.525555 1.136505,-0.525555 0.61649,0 1.718479,1.207516 1.718479,1.883039 0,0.321297 0.369803,1.160465 0.821785,1.864818 0.451983,0.704353 0.75509,1.454452 0.673571,1.666886 -0.08152,0.212434 -0.883102,0.757213 -1.781296,1.210622 -0.898195,0.453406 -2.183567,1.334209 -2.856384,1.957337 -1.524524,1.411939 -2.138093,1.736048 -3.286493,1.736048 -0.627586,0 -1.122434,-0.215077 -1.604896,-0.697537 z M 66.286649,71.07533 c -0.525426,-0.09894 -1.401046,-0.391404 -1.945821,-0.649917 -0.544778,-0.258514 -1.841291,-0.58727 -2.881143,-0.730565 -2.107908,-0.290481 -2.857054,-0.755351 -2.626597,-1.629889 0.08292,-0.314656 0.164179,-1.405538 0.180581,-2.424184 0.03464,-2.151357 0.154584,-2.412524 1.214935,-2.645416 0.457562,-0.100496 1.216209,-0.66158 1.81626,-1.343273 1.679367,-1.907861 2.78936,-1.448504 4.454859,1.843595 0.376013,0.743239 1.186008,2.006187 1.79999,2.806552 1.303258,1.698876 1.559192,2.366489 1.321713,3.44773 -0.253847,1.155753 -1.53388,1.664486 -3.334777,1.325367 z m 5.717815,-2.889589 c -1.099317,-0.282699 -2.010595,-0.802188 -2.559931,-1.459333 -0.601189,-0.719177 -0.594741,-0.862343 0.04639,-1.030005 1.344861,-0.351689 0.246673,-2.528289 -2.175153,-4.311137 -0.912376,-0.671652 -1.86699,-1.536742 -2.121363,-1.922422 -0.477974,-0.724699 -0.639783,-3.060833 -0.254045,-3.667824 0.112109,-0.176414 0.206195,0.299836 0.209076,1.058333 0.0029,0.7585 0.174609,1.676744 0.381611,2.040546 l 0.376367,0.661459 0.07819,-0.661459 c 0.168513,-1.425543 0.743019,-3.160225 1.940867,-5.860309 0.687488,-1.54968 1.400474,-3.514212 1.584412,-4.365625 0.183936,-0.851413 0.368726,-1.592605 0.410644,-1.647093 0.04192,-0.05449 0.447562,0.213403 0.901436,0.595313 1.173789,0.987679 2.459392,0.925809 4.582499,-0.22053 l 1.694481,-0.914909 0.591585,1.774805 c 0.325371,0.976143 1.163817,3.024963 1.863209,4.552932 0.699394,1.527968 1.41704,3.277917 1.594768,3.888777 0.336029,1.154943 0.974783,1.667642 1.346941,1.081122 0.30593,-0.482145 0.274167,-2.155802 -0.05759,-3.034446 -0.228459,-0.60507 -0.217619,-0.68186 0.05777,-0.409244 0.186449,0.184571 0.385752,1.163008 0.442897,2.174306 0.08324,1.473102 0.197411,1.868403 0.574188,1.987987 0.616773,0.195757 1.852205,1.348007 1.852205,1.727499 0,0.163634 -0.290108,-0.04726 -0.644686,-0.468649 -0.671613,-0.798168 -2.359732,-1.515041 -3.185647,-1.352814 -0.263216,0.0517 -0.610399,0.315843 -0.771517,0.586983 -0.161118,0.27114 -0.614265,0.821431 -1.006997,1.22287 -0.768757,0.785804 -0.810474,0.922023 -1.249992,4.081658 -0.160157,1.151337 -0.414904,2.242402 -0.566105,2.424589 -0.869413,1.047578 -4.28484,1.891364 -5.936515,1.46662 z m 9.244611,-7.294457 c -0.49807,-0.760153 -0.426405,-1.431938 0.194464,-1.822905 0.332491,-0.20937 0.679571,-0.151839 1.389062,0.230246 1.081522,0.582438 1.208797,1.233156 0.357783,1.829231 -0.836499,0.585907 -1.451507,0.510961 -1.941309,-0.236572 z M 70.837599,46.981496 c -0.740672,-0.585467 -1.346676,-1.203055 -1.346676,-1.372418 0,-0.169362 0.365005,0.04177 0.811122,0.469174 1.133229,1.085701 3.012178,1.095879 4.832046,0.02618 1.81469,-1.066663 1.334556,-1.180793 -0.717524,-0.170558 -1.927786,0.949045 -2.649339,0.886662 -4.127132,-0.35682 l -0.749395,-0.630575 1.095454,-0.841936 c 1.605278,-1.233769 2.034413,-1.26117 4.282022,-0.273419 1.600248,0.703256 1.98174,0.982802 1.98174,1.452157 0,0.319685 -0.159575,0.713682 -0.354613,0.87555 -0.715103,0.593482 -3.354311,1.887156 -3.849963,1.887156 -0.280723,0 -1.116409,-0.479017 -1.857081,-1.064486 z M 69.764814,43.56546 c -0.655611,-1.225023 -0.0463,-3.192395 0.988711,-3.192395 0.435636,0 1.118648,1.085997 1.118648,1.778664 0,0.750975 -0.434332,0.78903 -0.666234,0.05837 -0.102757,-0.32376 -0.351134,-0.508014 -0.613143,-0.454852 -0.33179,0.06732 -0.434782,0.364693 -0.417579,1.205672 0.02574,1.258603 -0.02241,1.329525 -0.410403,0.604538 z m 6.37154,0.266254 c -0.21663,-0.133886 -0.284639,-0.430001 -0.176795,-0.769789 0.09639,-0.303713 0.04155,-0.802052 -0.12188,-1.107422 -0.397441,-0.742623 -1.421355,-0.606347 -1.536512,0.2045 -0.113734,0.800807 -0.841494,0.77446 -0.841494,-0.03046 0,-0.893431 0.969872,-2.020057 1.738995,-2.020057 1.014423,0 1.701218,0.883651 1.696537,2.182813 -0.0048,1.324361 -0.262366,1.847263 -0.758851,1.540419 z"
       id="path21"
       inkscape:connector-curvature="0" />
  </g>
</svg>
