<?xml version="1.0" encoding="utf-8"?>
<!-- Svg Vector Icons : http://www.onlinewebfonts.com/icon -->
<!DOCTYPE svg PUBLIC "-//W3C//DTD SVG 1.1//EN" "http://www.w3.org/Graphics/SVG/1.1/DTD/svg11.dtd">
<svg version="1.1" xmlns="http://www.w3.org/2000/svg" xmlns:xlink="http://www.w3.org/1999/xlink" x="0px" y="0px" viewBox="-270 -270 1550 1550" enable-background="new 0 0 1000 1000" xml:space="preserve"><metadata> Svg Vector Icons : http://www.onlinewebfonts.com/icon </metadata>
<g><g><g><path style="fill:#ffffff;" d="M637.7,426.4c59.5-25.3,137.1-40.8,250.8-37.6C834,319.6,785.3,269.1,756.2,218.3c-80.6,46.5-139.7,94.6-183.7,143.4c-20.3-10.6-42.9-17.2-67.2-18c7.6-63.7,32.6-138.3,92.7-235.8c-65.3,0-130.6,0-196,0c-13.7,115.9-4.7,196.4,14.8,259.5c-20.2,12.7-37.1,29.8-49.7,50.1c-51.3-37.4-103.2-89.9-156.8-164c-26.9,60.1-53.6,100.4-98.7,135.1C204.4,458.1,279,491.2,343.8,506c1,24.4,7.6,47.1,18.5,67.4c-59.5,25.3-137.1,40.7-250.8,37.5c54.4,69.2,103.1,119.8,132.3,170.5c80.6-46.5,139.7-94.5,183.6-143.3c20.3,10.6,42.9,17.2,67.2,18c-7.6,63.7-32.6,138.3-92.7,235.8c65.3,0,130.6,0,196,0c13.7-115.9,4.7-196.4-14.9-259.5c20.2-12.7,37.1-29.8,49.8-50.1c51.3,37.3,103.3,89.9,156.9,163.9c26.9-60,53.6-100.4,98.7-135c-92.9-69.4-167.5-102.5-232.3-117.4C655.2,469.4,648.5,446.7,637.7,426.4z M500,549c-27,0-49-22-49-49c0-27,21.9-49,49-49c27,0,49,22,49,49C549,527,527,549,500,549z"/><path style="fill:#ffffff;" d="M911.6,10H88.4C45.3,10,10,45.3,10,88.4v823.2c0,43.1,35.3,78.4,78.4,78.4h823.2c43.1,0,78.4-35.3,78.4-78.4V88.4C990,45.3,954.7,10,911.6,10z M78.6,49.2c16.3,0,29.4,13.1,29.4,29.4S94.9,108,78.6,108c-16.3,0-29.4-13.1-29.4-29.4S62.3,49.2,78.6,49.2z M78.6,950.8c-16.3,0-29.4-13.1-29.4-29.4S62.3,892,78.6,892c16.3,0,29.4,13.1,29.4,29.4C108,937.7,94.9,950.8,78.6,950.8z M500,931.2C262.1,931.2,68.8,738.3,68.8,500C68.8,261.7,262.1,68.8,500,68.8c237.9,0,431.2,192.9,431.2,431.2C931.2,738.3,737.9,931.2,500,931.2z M921.4,950.8c-16.3,0-29.4-13.1-29.4-29.4s13.1-29.4,29.4-29.4s29.4,13.1,29.4,29.4C950.8,937.7,937.7,950.8,921.4,950.8z M921.4,108c-16.3,0-29.4-13.1-29.4-29.4s13.1-29.4,29.4-29.4s29.4,13.1,29.4,29.4S937.7,108,921.4,108z"/></g></g><g></g><g></g><g></g><g></g><g></g><g></g><g></g><g></g><g></g><g></g><g></g><g></g><g></g><g></g><g></g></g></svg>