<?xml version="1.0" encoding="utf-8"?>
<svg version="1.1" xmlns="http://www.w3.org/2000/svg" xmlns:xlink="http://www.w3.org/1999/xlink" x="0px" y="0px" 
viewBox="50 160 900 900" xml:space="preserve">
<g><g><g>
<path style="fill:#ffffff;" d="M626,555.9c-7.9,0-13.2,0.5-16.1,1.3v50.7c3.3,0.7,7.4,1,13,1c20.6,0,33.4-10.4,33.4-27.7C656.3,565.3,645.6,555.9,626,555.9z"/>
<path style="fill:#ffffff;" d="M539.5,325.5c-21.8-21.8-57.1-21.8-78.9,0L212.8,573.3c-21.8,21.8-21.8,57.1,0,78.9L460.6,900c21.8,21.8,57.1,21.8,78.9,0l247.8-247.8c10.5-10.5,16.3-24.7,16.3-39.5c0-14.8-5.9-29-16.3-39.5L539.5,325.5z M410,559.4H344v39.2h61.6v31.6H344v69h-38.7V527.6H410V559.4z M558.1,560.2h-46.8v139h-38.7v-139h-46.3v-32.6h131.8V560.2z M679.2,620.5c-13.2,12.2-33.1,18.1-56,18.1c-5.1,0-9.7-0.2-13.2-1v61.6h-38.4V529.9c12-2,28.8-3.6,52.4-3.6c23.9,0,41.2,4.6,52.7,14c11,8.4,18.1,22.7,18.1,39.5C694.7,596.9,689.3,611.1,679.2,620.5z"/>
</g></g><g></g><g></g><g></g><g></g><g></g><g></g><g></g><g></g><g></g><g></g><g></g><g></g><g></g><g></g><g></g></g>
</svg>